[Header]
FileType HTR
DataType HTRS
FileVersion 1
NumSegments 64
NumFrames 3
DataFrameRate 30
EulerRotationOrder ZYX
CalibrationUnits mm
RotationUnits Degrees
GlobalAxisofGravity Y
BoneLengthAxis Y
ScaleFactor 1.0
[SegmentNames&Hierarchy]
Hips	GLOBAL
Spine	Hips
Spine1	Spine
Spine2	Spine1
Neck	Spine2
Head	Neck
LeftEye	Head
RightEye	Head
LeftShoulder	Spine2
LeftArm	LeftShoulder
LeftForeArm	LeftArm
LeftHand	LeftForeArm
LeftHandThumb1	LeftHand
LeftHandThumb2	LeftHandThumb1
LeftHandThumb3	LeftHandThumb2
LeftHandThumb4	LeftHandThumb3
LeftHandIndex1	LeftHand
LeftHandIndex2	LeftHandIndex1
LeftHandIndex3	LeftHandIndex2
LeftHandIndex4	LeftHandIndex3
LeftHandMiddle1	LeftHand
LeftHandMiddle2	LeftHandMiddle1
LeftHandMiddle3	LeftHandMiddle2
LeftHandMiddle4	LeftHandMiddle3
LeftHandRing1	LeftHand
LeftHandRing2	LeftHandRing1
LeftHandRing3	LeftHandRing2
LeftHandRing4	LeftHandRing3
LeftHandPinky1	LeftHand
LeftHandPinky2	LeftHandPinky1
LeftHandPinky3	LeftHandPinky2
LeftHandPinky4	LeftHandPinky3
RightShoulder	Spine2
RightArm	RightShoulder
RightForeArm	RightArm
RightHand	RightForeArm
RightHandPinky1	RightHand
RightHandPinky2	RightHandPinky1
RightHandPinky3	RightHandPinky2
RightHandPinky4	RightHandPinky3
RightHandRing1	RightHand
RightHandRing2	RightHandRing1
RightHandRing3	RightHandRing2
RightHandRing4	RightHandRing3
RightHandMiddle1	RightHand
RightHandMiddle2	RightHandMiddle1
RightHandMiddle3	RightHandMiddle2
RightHandMiddle4	RightHandMiddle3
RightHandIndex1	RightHand
RightHandIndex2	RightHandIndex1
RightHandIndex3	RightHandIndex2
RightHandIndex4	RightHandIndex3
RightHandThumb1	RightHand
RightHandThumb2	RightHandThumb1
RightHandThumb3	RightHandThumb2
RightHandThumb4	RightHandThumb3
LeftUpLeg	Hips
LeftLeg	LeftUpLeg
LeftFoot	LeftLeg
LeftToeBase	LeftFoot
RightUpLeg	Hips
RightLeg	RightUpLeg
RightFoot	RightLeg
RightToeBase	RightFoot
[BasePosition]
Hips	0	0	0	0	0	0	1
Spine	0	0	0	0	0	0	1
Spine1	0	0	0	0	0	0	1
Spine2	0	0	0	0	0	0	1
Neck	0	0	0	0	0	0	1
Head	0	0	0	0	0	0	1
LeftEye	0	0	0	0	0	0	1
RightEye	0	0	0	0	0	0	1
LeftShoulder	0	0	0	0	0	0	1
LeftArm	0	0	0	0	0	0	1
LeftForeArm	0	0	0	0	0	0	1
LeftHand	0	0	0	0	0	0	1
LeftHandThumb1	0	0	0	0	0	0	1
LeftHandThumb2	0	0	0	0	0	0	1
LeftHandThumb3	0	0	0	0	0	0	1
LeftHandThumb4	0	0	0	0	0	0	1
LeftHandIndex1	0	0	0	0	0	0	1
LeftHandIndex2	0	0	0	0	0	0	1
LeftHandIndex3	0	0	0	0	0	0	1
LeftHandIndex4	0	0	0	0	0	0	1
LeftHandMiddle1	0	0	0	0	0	0	1
LeftHandMiddle2	0	0	0	0	0	0	1
LeftHandMiddle3	0	0	0	0	0	0	1
LeftHandMiddle4	0	0	0	0	0	0	1
LeftHandRing1	0	0	0	0	0	0	1
LeftHandRing2	0	0	0	0	0	0	1
LeftHandRing3	0	0	0	0	0	0	1
LeftHandRing4	0	0	0	0	0	0	1
LeftHandPinky1	0	0	0	0	0	0	1
LeftHandPinky2	0	0	0	0	0	0	1
LeftHandPinky3	0	0	0	0	0	0	1
LeftHandPinky4	0	0	0	0	0	0	1
RightShoulder	0	0	0	0	0	0	1
RightArm	0	0	0	0	0	0	1
RightForeArm	0	0	0	0	0	0	1
RightHand	0	0	0	0	0	0	1
RightHandPinky1	0	0	0	0	0	0	1
RightHandPinky2	0	0	0	0	0	0	1
RightHandPinky3	0	0	0	0	0	0	1
RightHandPinky4	0	0	0	0	0	0	1
RightHandRing1	0	0	0	0	0	0	1
RightHandRing2	0	0	0	0	0	0	1
RightHandRing3	0	0	0	0	0	0	1
RightHandRing4	0	0	0	0	0	0	1
RightHandMiddle1	0	0	0	0	0	0	1
RightHandMiddle2	0	0	0	0	0	0	1
RightHandMiddle3	0	0	0	0	0	0	1
RightHandMiddle4	0	0	0	0	0	0	1
RightHandIndex1	0	0	0	0	0	0	1
RightHandIndex2	0	0	0	0	0	0	1
RightHandIndex3	0	0	0	0	0	0	1
RightHandIndex4	0	0	0	0	0	0	1
RightHandThumb1	0	0	0	0	0	0	1
RightHandThumb2	0	0	0	0	0	0	1
RightHandThumb3	0	0	0	0	0	0	1
RightHandThumb4	0	0	0	0	0	0	1
LeftUpLeg	0	0	0	0	0	0	1
LeftLeg	0	0	0	0	0	0	1
LeftFoot	0	0	0	0	0	0	1
LeftToeBase	0	0	0	0	0	0	1
RightUpLeg	0	0	0	0	0	0	1
RightLeg	0	0	0	0	0	0	1
RightFoot	0	0	0	0	0	0	1
RightToeBase	0	0	0	0	0	0	1
[Hips]
3	4.202898026	1031.038086	118.1369629	3.157381535	0.8095487356	-0.06233198941	1.0
4	6.841275215	1022.022034	170.3681335	3.611639977	-0.2599396408	-1.195941925	1.0
5	9.74283886	1006.184387	224.9876404	3.895711422	-1.736668587	-2.861970425	1.0
[Spine]
3	0	101.8159943	1.315000057	5.356093407	0.6269538403	0.2805857956	1.0
4	0	101.8159943	1.315000057	4.884772778	1.928553104	2.106977701	1.0
5	0	101.8159943	1.315000057	4.365876198	3.271835089	4.31586504	1.0
[Spine1]
3	0	100.8349991	-10.00800037	2.021140575	-1.250340462	-0.03751690686	1.0
4	0	100.8349991	-10.00800037	1.960743189	-0.6191970706	-0.9188869596	1.0
5	0	100.8349991	-10.00800037	1.993406892	0.07531496882	-1.734072447	1.0
[Spine2]
3	0	91	-13.73399925	2.003896713	-1.220463753	0.04295269027	1.0
4	0	91	-13.73399925	1.923185945	-0.6115815639	-0.856238544	1.0
5	0	91	-13.73399925	1.923946619	0.05805617943	-1.693107367	1.0
[Neck]
3	0	166.7169952	-25.16200066	-0.5354961157	1.553208709	-0.2768989503	1.0
4	0	166.7169952	-25.16200066	-0.6001391411	1.131617546	0.2364722639	1.0
5	0	166.7169952	-25.16200066	-0.5938699841	0.6703711748	0.9168109298	1.0
[Head]
3	0	96.17900085	16.84999847	-2.910781384	2.184898138	-2.035122871	1.0
4	0	96.17900085	16.84999847	-3.26749754	1.420227528	-2.234180212	1.0
5	0	96.17900085	16.84999847	-3.929813147	1.033237696	-2.476133347	1.0
[LeftEye]
3	30.6760006	64.09500122	92.83599854	0	0	0	1.0
4	30.6760006	64.09500122	92.83599854	0	0	0	1.0
5	30.6760006	64.09500122	92.83599854	0	0	0	1.0
[RightEye]
3	-30.6760006	64.09500122	92.83499908	0	0	0	1.0
4	-30.6760006	64.09500122	92.83499908	0	0	0	1.0
5	-30.6760006	64.09500122	92.83499908	0	0	0	1.0
[LeftShoulder]
3	45.70400238	109.4599991	-26.28000069	2.229570627	-7.033844948	-14.26296997	1.0
4	45.70400238	109.4599991	-26.28000069	2.088565111	-6.465556145	-14.03227234	1.0
5	45.70400238	109.4599991	-26.28000069	1.936759114	-5.910778046	-13.60867023	1.0
[LeftArm]
3	105.923996	-5.24600029	-22.32099915	21.63798523	3.865601063	-62.61066437	1.0
4	105.923996	-5.24600029	-22.32099915	19.35938454	7.794117451	-63.90506363	1.0
5	105.923996	-5.24600029	-22.32099915	17.0813694	11.09032726	-65.33625793	1.0
[LeftForeArm]
3	278.414978	-0.0009999999311	0	-1.681273261e-06	-10.91191959	-0.0001796612487	1.0
4	278.414978	-0.0009999999311	0	1.001060568e-07	-10.48923016	-0.0001890720596	1.0
5	278.414978	-0.0009999999311	0	6.713156381e-06	-9.616138458	-0.0002105381282	1.0
[LeftHand]
3	283.2879944	0	0	2.400776148	1.314751983	-15.05561066	1.0
4	283.2879944	0	0	2.046712399	-0.2612569332	-15.67236328	1.0
5	283.2879944	0	0	1.576731086	-1.316418409	-16.18859863	1.0
[LeftHandThumb1]
3	24.6609993	-15.75	26.8239994	5.839803696	2.504242897	11.148386	1.0
4	24.6609993	-15.75	26.8239994	5.839803696	2.504242897	11.148386	1.0
5	24.6609993	-15.75	26.8239994	5.839803696	2.504242897	11.148386	1.0
[LeftHandThumb2]
3	32.29800034	-18.64699936	18.64699936	6.684149742	6.907543182	7.496895313	1.0
4	32.29800034	-18.64699936	18.64699936	7.113663673	6.544654369	7.357176304	1.0
5	32.29800034	-18.64699936	18.64699936	8.105578423	5.934844494	7.041249752	1.0
[LeftHandThumb3]
3	26.52600098	-15.31499958	15.31499958	-0.6533747315	-7.226634502	21.22303009	1.0
4	26.52600098	-15.31499958	15.31499958	-0.680518806	-7.290726662	21.22694206	1.0
5	26.52600098	-15.31499958	15.31499958	-0.9691727757	-8.017306328	21.19399834	1.0
[LeftHandThumb4]
3	19.54599953	-11.28499985	11.28499985	0	0	0	1.0
4	19.54599953	-11.28499985	11.28499985	0	0	0	1.0
5	19.54599953	-11.28499985	11.28499985	0	0	0	1.0
[LeftHandIndex1]
3	91.09299469	-5.170999527	22.60099792	-0.7758748531	-5.271336555	-16.37616348	1.0
4	91.09299469	-5.170999527	22.60099792	-0.7788364291	-5.188970089	-16.2700119	1.0
5	91.09299469	-5.170999527	22.60099792	-0.8215894103	-4.682374001	-17.34615135	1.0
[LeftHandIndex2]
3	36.76399994	0	0	-0.2023742199	1.524553776	-15.1220274	1.0
4	36.76399994	0	0	-0.2025228441	1.525108457	-15.12763119	1.0
5	36.76399994	0	0	-0.2031547874	1.527452707	-15.15139771	1.0
[LeftHandIndex3]
3	28.83100128	0	0	-0.2023754716	1.524555087	-15.12201977	1.0
4	28.83100128	0	0	-0.2025244385	1.525104165	-15.12762451	1.0
5	28.83100128	0	0	-0.2031577229	1.527447581	-15.15140915	1.0
[LeftHandIndex4]
3	23.92700005	0	0	0	0	0	1.0
4	23.92700005	0	0	0	0	0	1.0
5	23.92700005	0	0	0	0	0	1.0
[LeftHandMiddle1]
3	95.33399963	0	0	-1.550281525	3.960810184	-25.8064518	1.0
4	95.33399963	0	0	-1.54436481	3.977539778	-25.73894882	1.0
5	95.33399963	0	0	-1.603898168	4.213322163	-26.4533577	1.0
[LeftHandMiddle2]
3	36.98199844	0	0	-0.1260300428	1.207141638	-11.91990185	1.0
4	36.98199844	0	0	-0.125748232	1.205796838	-11.9064045	1.0
5	36.98199844	0	0	-0.1254213452	1.20426774	-11.89106178	1.0
[LeftHandMiddle3]
3	29.50900078	0	0	-0.1714047641	1.404976487	-13.91044521	1.0
4	29.50900078	0	0	-0.1710714847	1.403638959	-13.8969717	1.0
5	29.50900078	0	0	-0.1706974804	1.40212369	-13.88166046	1.0
[LeftHandMiddle4]
3	28.3390007	0	0	0	0	0	1.0
4	28.3390007	0	0	0	0	0	1.0
5	28.3390007	0	0	0	0	0	1.0
[LeftHandRing1]
3	91.04499817	-0.4390000105	-18.65100098	-1.58826077	6.734465122	-26.29688454	1.0
4	91.04499817	-0.4390000105	-18.65100098	-1.590923548	6.781785011	-26.33571815	1.0
5	91.04499817	-0.4390000105	-18.65100098	-1.666760087	6.950209618	-27.23903084	1.0
[LeftHandRing2]
3	31.54000092	0	0	-0.3289295435	1.932722688	-19.31533241	1.0
4	31.54000092	0	0	-0.3287571371	1.932241678	-19.31024361	1.0
5	31.54000092	0	0	-0.3293490708	1.933932424	-19.32788467	1.0
[LeftHandRing3]
3	29.37700081	0	0	-0.3992965519	2.1227355	-21.30383301	1.0
4	29.37700081	0	0	-0.3990996778	2.122234583	-21.29857635	1.0
5	29.37700081	0	0	-0.3997338116	2.123870134	-21.3158226	1.0
[LeftHandRing4]
3	26.47500038	0	0	0	0	0	1.0
4	26.47500038	0	0	0	0	0	1.0
5	26.47500038	0	0	0	0	0	1.0
[LeftHandPinky1]
3	80.77799988	-4.887000084	-38.06099701	-2.518284798	8.801570892	-33.4535675	1.0
4	80.77799988	-4.887000084	-38.06099701	-2.520143509	8.781683922	-33.49567032	1.0
5	80.77799988	-4.887000084	-38.06099701	-2.56611228	8.915951729	-33.8965683	1.0
[LeftHandPinky2]
3	36	0	0	-0.2768362761	1.77721405	-17.70615768	1.0
4	36	0	0	-0.2761553824	1.775082469	-17.68424034	1.0
5	36	0	0	-0.2758787274	1.774227858	-17.67543221	1.0
[LeftHandPinky3]
3	21.14200211	0	0	-0.2768337727	1.777203083	-17.7061615	1.0
4	21.14200211	0	0	-0.2761553824	1.77508235	-17.68424416	1.0
5	21.14200211	0	0	-0.2758819461	1.774234653	-17.67542648	1.0
[LeftHandPinky4]
3	19.75699997	0	0	0	0	0	1.0
4	19.75699997	0	0	0	0	0	1.0
5	19.75699997	0	0	0	0	0	1.0
[RightShoulder]
3	-45.70000076	109.4620056	-26.28000069	1.7236619	4.467383385	14.76789761	1.0
4	-45.70000076	109.4620056	-26.28000069	1.782313466	4.991796494	14.0656414	1.0
5	-45.70000076	109.4620056	-26.28000069	1.944143295	5.867352486	13.7973671	1.0
[RightArm]
3	-105.9280014	-5.248000145	-22.32099915	25.53673935	20.31954956	50.49364471	1.0
4	-105.9280014	-5.248000145	-22.32099915	25.5365696	22.65114403	48.13443756	1.0
5	-105.9280014	-5.248000145	-22.32099915	25.24871826	25.0676384	45.08244705	1.0
[RightForeArm]
3	-278.414978	0	0	-4.392349524e-07	30.12709618	-1.172274096e-05	1.0
4	-278.414978	0	0	-3.242708544e-06	33.12103271	-1.944446194e-05	1.0
5	-278.414978	0	0	-2.948233487e-06	34.42183685	-2.087671237e-05	1.0
[RightHand]
3	-283.2879944	0	0.0009999999311	-0.8490737081	-4.380881786	10.47302914	1.0
4	-283.2879944	0	0.0009999999311	-0.3353862464	-4.755429268	11.76969624	1.0
5	-283.2879944	0	0.0009999999311	-0.09148756415	-3.319578648	11.42425156	1.0
[RightHandPinky1]
3	-80.76699829	-4.885000229	-38.06000137	-2.164534807	-1.904140592	30.42448807	1.0
4	-80.76699829	-4.885000229	-38.06000137	-2.358186722	-1.0948807	31.10263634	1.0
5	-80.76699829	-4.885000229	-38.06000137	-2.464886427	-0.5754216313	31.32968903	1.0
[RightHandPinky2]
3	-36	0	0.0009999999311	-0.5686516166	-2.225152493	28.6876297	1.0
4	-36	0	0.0009999999311	-0.5693154335	-2.226377726	28.70484543	1.0
5	-36	0	0.0009999999311	-0.5698506236	-2.22735405	28.71862984	1.0
[RightHandPinky3]
3	-21.14200211	0	0	-0.178276509	-1.273772359	15.93396568	1.0
4	-21.14200211	0	0	-0.1782300174	-1.273590326	15.93167782	1.0
5	-21.14200211	0	0	-0.1782284081	-1.273618698	15.93195057	1.0
[RightHandPinky4]
3	-19.75699997	0	0	0	0	0	1.0
4	-19.75699997	0	0	0	0	0	1.0
5	-19.75699997	0	0	0	0	0	1.0
[RightHandRing1]
3	-91.03599548	-0.4390000105	-18.65100098	-1.390414953	-1.831664801	25.54358864	1.0
4	-91.03599548	-0.4390000105	-18.65100098	-1.447908878	-1.568370342	26.359478	1.0
5	-91.03599548	-0.4390000105	-18.65100098	-1.48097682	-1.448521852	26.82284927	1.0
[RightHandRing2]
3	-31.54000092	0	0	-1.502767682	-3.41622448	47.47885132	1.0
4	-31.54000092	0	0	-1.504241705	-3.417560339	47.50352478	1.0
5	-31.54000092	0	0	-1.504012227	-3.417342901	47.49953842	1.0
[RightHandRing3]
3	-29.37700081	0	0	-0.3747409284	-1.826527238	23.18667221	1.0
4	-29.37700081	0	0	-0.3754803836	-1.828264356	23.20990562	1.0
5	-29.37700081	0	0	-0.3753274381	-1.827908039	23.20520592	1.0
[RightHandRing4]
3	-26.47500038	0	0	0	0	0	1.0
4	-26.47500038	0	0	0	0	0	1.0
5	-26.47500038	0	0	0	0	0	1.0
[RightHandMiddle1]
3	-95.32500458	0	0	-1.243441582	0.3195399642	23.54664993	1.0
4	-95.32500458	0	0	-1.283883691	0.3480682671	24.1341362	1.0
5	-95.32500458	0	0	-1.295349002	0.2956216931	24.29466057	1.0
[RightHandMiddle2]
3	-36.98199844	0	0	-0.8565912843	-2.685067654	35.38195801	1.0
4	-36.98199844	0	0	-0.8578169346	-2.686788797	35.40809631	1.0
5	-36.98199844	0	0	-0.8610416651	-2.691317558	35.47676849	1.0
[RightHandMiddle3]
3	-29.50900078	0	0	-0.296397686	-1.633646131	20.59071159	1.0
4	-29.50900078	0	0	-0.2971316576	-1.635602832	20.61662674	1.0
5	-29.50900078	0	0	-0.2990931273	-1.640791297	20.68530083	1.0
[RightHandMiddle4]
3	-28.3390007	0	0.0009999999311	0	0	0	1.0
4	-28.3390007	0	0.0009999999311	0	0	0	1.0
5	-28.3390007	0	0.0009999999311	0	0	0	1.0
[RightHandIndex1]
3	-91.08300018	-5.167999744	22.60099792	-1.133782625	4.802984238	22.39036942	1.0
4	-91.08300018	-5.167999744	22.60099792	-1.214975357	4.920781612	23.5923481	1.0
5	-91.08300018	-5.167999744	22.60099792	-1.259329796	4.991901875	24.23706818	1.0
[RightHandIndex2]
3	-36.76399994	0	0	-0.3909641504	-1.86393404	23.69061279	1.0
4	-36.76399994	0	0	-0.3906074762	-1.863108397	23.6795063	1.0
5	-36.76399994	0	0	-0.3901740611	-1.862113714	23.66604805	1.0
[RightHandIndex3]
3	-28.83100128	0	0	-0.07663377374	-0.8398493528	10.42761898	1.0
4	-28.83100128	0	0	-0.07647303492	-0.838978231	10.41652012	1.0
5	-28.83100128	0	0	-0.07628408819	-0.8379167914	10.40307999	1.0
[RightHandIndex4]
3	-23.92700005	0	0	0	0	0	1.0
4	-23.92700005	0	0	0	0	0	1.0
5	-23.92700005	0	0	0	0	0	1.0
[RightHandThumb1]
3	-24.64799881	-15.72700024	26.82600021	12.78110313	-2.167885065	-4.410644054	1.0
4	-24.64799881	-15.72700024	26.82600021	12.78110313	-2.167885065	-4.410644054	1.0
5	-24.64799881	-15.72700024	26.82600021	12.78110313	-2.167885065	-4.410644054	1.0
[RightHandThumb2]
3	-32.29800034	-18.64699936	18.64699936	7.895201206	-16.59966278	-9.839308739	1.0
4	-32.29800034	-18.64699936	18.64699936	7.851597309	-15.0771637	-9.467293739	1.0
5	-32.29800034	-18.64699936	18.64699936	7.766682625	-14.26827621	-9.204753876	1.0
[RightHandThumb3]
3	-26.52600098	-15.31399918	15.31399918	-15.52406311	-4.756710052	-11.2741766	1.0
4	-26.52600098	-15.31399918	15.31399918	-15.55539131	-4.682536602	-11.29756927	1.0
5	-26.52600098	-15.31399918	15.31399918	-15.57646465	-4.632643223	-11.31330109	1.0
[RightHandThumb4]
3	-19.54599953	-11.28499985	11.28499985	0	0	0	1.0
4	-19.54599953	-11.28499985	11.28499985	0	0	0	1.0
5	-19.54599953	-11.28499985	11.28499985	0	0	0	1.0
[LeftUpLeg]
3	82.07800293	-67.51699829	-15.99599934	-30.06832886	8.756385803	-1.982366443	1.0
4	82.07800293	-67.51699829	-15.99599934	-31.51289177	7.448481083	-1.289074659	1.0
5	82.07800293	-67.51699829	-15.99599934	-35.7665062	6.155866623	0.2902163267	1.0
[LeftLeg]
3	0	-443.7049866	2.845999956	24.48761559	1.720834494	-2.148787737	1.0
4	0	-443.7049866	2.845999956	10.8383894	3.165552378	-0.3516864181	1.0
5	0	-443.7049866	2.845999956	5.77835083	3.573003769	2.352233171	1.0
[LeftFoot]
3	0	-444.2789917	-29.8219986	2.667047739	0.3455901742	-4.288317204	1.0
4	0	-444.2789917	-29.8219986	3.110478163	0.4145752192	-5.687956333	1.0
5	0	-444.2789917	-29.8219986	-1.038233519	0.2944892943	-6.603548527	1.0
[LeftToeBase]
3	0	-87.28699493	107.1060028	-5.418943405	2.552102387e-07	3.965051292e-06	1.0
4	0	-87.28699493	107.1060028	-5.963784218	2.390413101e-06	3.11545864e-06	1.0
5	0	-87.28699493	107.1060028	-7.411816597	1.531065209e-06	4.818046818e-06	1.0
[RightUpLeg]
3	-82.07800293	-67.51699829	-15.99599934	-3.634372234	-9.523686409	2.691287756	1.0
4	-82.07800293	-67.51699829	-15.99599934	-1.389620066	-11.29229832	2.572331429	1.0
5	-82.07800293	-67.51699829	-15.99599934	0.4186678529	-12.60305119	2.543711662	1.0
[RightLeg]
3	0	-443.7049866	2.861999989	10.59199047	7.518221378	-2.640232563	1.0
4	0	-443.7049866	2.861999989	11.91547775	7.11288023	-1.917295456	1.0
5	0	-443.7049866	2.861999989	15.03008175	4.137112617	-1.733382702	1.0
[RightFoot]
3	0	-444.2770081	-29.83799934	-12.05500031	-0.4601777494	0.1685898006	1.0
4	0	-444.2770081	-29.83799934	-15.04249477	2.280213833	-0.736589551	1.0
5	0	-444.2770081	-29.83799934	-18.90525627	7.786660671	-1.242008567	1.0
[RightToeBase]
3	0	-87.28699493	107.1060028	-4.481986523	-4.044459843e-07	1.147807893e-07	1.0
4	0	-87.28699493	107.1060028	-4.555538654	1.036571007e-06	1.939420002e-07	1.0
5	0	-87.28699493	107.1060028	-5.019002914	1.281806817e-06	3.540494333e-07	1.0
[EndOfFile]
